<?xml version="1.0" encoding="UTF-8" standalone="no"?>
<svg
   xmlns:shaper="http://www.shapertools.com/namespaces/shaper"
   xmlns:dc="http://purl.org/dc/elements/1.1/"
   xmlns:cc="http://creativecommons.org/ns#"
   xmlns:rdf="http://www.w3.org/1999/02/22-rdf-syntax-ns#"
   xmlns:svg="http://www.w3.org/2000/svg"
   xmlns="http://www.w3.org/2000/svg"
   xmlns:sodipodi="http://sodipodi.sourceforge.net/DTD/sodipodi-0.dtd"
   xmlns:inkscape="http://www.inkscape.org/namespaces/inkscape"
   width="1000mm"
   height="600mm"
   viewBox="0 0 1000 600"
   version="1.1"
   id="svg8"
   inkscape:version="1.0.1 (3bc2e813f5, 2020-09-07)"
   sodipodi:docname="meubles_interieur_10mm.svg"
   inkscape:export-filename="D:\Autoentreprise\remorque_atelier\git\remorques_ateliers\docs\pictures\decoupe_meubles_interieur.png"
   inkscape:export-xdpi="25.4"
   inkscape:export-ydpi="25.4">
  <defs
     id="defs2">
    <rect
       x="92.226192"
       y="-155.58928"
       width="57.452382"
       height="70.303572"
       id="rect851" />
    <rect
       x="92.226189"
       y="-155.58928"
       width="57.452381"
       height="70.303574"
       id="rect851-4" />
    <rect
       x="92.226189"
       y="-155.58928"
       width="57.452381"
       height="70.303574"
       id="rect864" />
    <rect
       x="92.226189"
       y="-155.58928"
       width="57.452381"
       height="70.303574"
       id="rect851-8" />
    <rect
       x="92.226189"
       y="-155.58928"
       width="57.452381"
       height="70.303574"
       id="rect864-7" />
    <rect
       x="92.226189"
       y="-155.58928"
       width="57.452381"
       height="70.303574"
       id="rect851-9" />
    <rect
       x="92.226189"
       y="-155.58928"
       width="57.452381"
       height="70.303574"
       id="rect864-2" />
  </defs>
  <sodipodi:namedview
     id="base"
     pagecolor="#ffffff"
     bordercolor="#666666"
     borderopacity="1.0"
     inkscape:pageopacity="0.0"
     inkscape:pageshadow="2"
     inkscape:zoom="0.087499999"
     inkscape:cx="1232.1194"
     inkscape:cy="242.62964"
     inkscape:document-units="mm"
     inkscape:current-layer="layer1"
     showgrid="false"
     inkscape:window-width="1044"
     inkscape:window-height="991"
     inkscape:window-x="-8"
     inkscape:window-y="0"
     inkscape:window-maximized="0"
     inkscape:document-rotation="0" />
  <metadata
     id="metadata5">
    <rdf:RDF>
      <cc:Work
         rdf:about="">
        <dc:format>image/svg+xml</dc:format>
        <dc:type
           rdf:resource="http://purl.org/dc/dcmitype/StillImage" />
        <dc:title />
      </cc:Work>
    </rdf:RDF>
  </metadata>
  <g
     inkscape:label="Calque 1"
     inkscape:groupmode="layer"
     id="layer1"
     transform="translate(0,303)">
    <rect
       style="fill:#ffffff;fill-opacity:1;stroke-width:0.834551"
       id="rect847"
       width="1032.3462"
       height="624.48059"
       x="-13.084291"
       y="-304.52142" />
    <path
       id="path815"
       shaper:cutDepth="0"
       d="m 905.65527,256.4156 v 10 h 49.98432 v -550 h -49.98432 v 10 h -50.01045 v -10 h -50.01046 v 10 h -50.01045 v -10 h -49.98432 v 550 h 49.98432 v -10 h 50.01045 v 10 h 50.01046 v -10 z"
       inkscape:connector-curvature="0"
       style="fill:#d61e1e;fill-opacity:1;stroke:#000000;stroke-width:1;stroke-linecap:round;stroke-linejoin:round;stroke-miterlimit:4;stroke-dasharray:none;stroke-opacity:1" />
    <path
       id="path817"
       shaper:cutDepth="0"
       d="m 805.63436,76.4156 v 10 h -50.01045 v -10 z"
       inkscape:connector-curvature="0"
       style="fill:#ffffff;fill-opacity:1;stroke:#000000;stroke-width:1;stroke-linecap:round;stroke-linejoin:round;stroke-miterlimit:4;stroke-dasharray:none;stroke-opacity:1" />
    <path
       id="path819"
       shaper:cutDepth="0"
       d="m 905.65527,-103.5844 v 10 h -50.01045 v -10 z"
       inkscape:connector-curvature="0"
       style="fill:#ffffff;fill-opacity:1;stroke:#000000;stroke-width:1;stroke-linecap:round;stroke-linejoin:round;stroke-miterlimit:4;stroke-dasharray:none;stroke-opacity:1" />
    <path
       id="path821"
       shaper:cutDepth="0"
       d="m 805.63436,-103.5844 v 10 h -50.01045 v -10 z"
       inkscape:connector-curvature="0"
       style="fill:#ffffff;fill-opacity:1;stroke:#000000;stroke-width:1;stroke-linecap:round;stroke-linejoin:round;stroke-miterlimit:4;stroke-dasharray:none;stroke-opacity:1" />
    <path
       id="path823"
       shaper:cutDepth="0"
       d="m 905.65527,76.4156 v 10 h -50.01045 v -10 z"
       inkscape:connector-curvature="0"
       style="fill:#ffffff;fill-opacity:1;stroke:#000000;stroke-width:1;stroke-linecap:round;stroke-linejoin:round;stroke-miterlimit:4;stroke-dasharray:none;stroke-opacity:1" />
    <path
       id="path862-3-7"
       shaper:cutDepth="0"
       d="m 47.650865,-49.701471 h 10 V 0.30897943 H 168.35086 V -27.191021 h 9.3 v -45 h -9.3 v -27.5 h 9.3 v -50.052259 h -9.3 v -27.5 h 9.3 v -45 h -9.3 v -27.5 H 57.650865 v 50.01045 h -10 v 50.01045 h 10 v 50.010459 h -10 z"
       inkscape:connector-curvature="0"
       style="fill:#cf35a8;fill-opacity:1;stroke:#000000;stroke-width:1;stroke-linecap:round;stroke-linejoin:round;stroke-miterlimit:4;stroke-dasharray:none;stroke-opacity:1" />
    <path
       id="path862-3-6"
       shaper:cutDepth="0"
       d="m 50.674675,217.14973 h 10 v 50.01045 H 171.37467 v -27.5 h 9.3 v -45 h -9.3 v -27.5 h 9.3 v -50.05226 h -9.3 V 89.607919 h 9.3 v -45 h -9.3 v -27.5 H 60.674675 v 50.01045 h -10 v 50.010451 h 10 v 50.01046 h -10 z"
       inkscape:connector-curvature="0"
       style="fill:#cf35a8;stroke:#000000;stroke-width:1;stroke-linecap:round;stroke-linejoin:round;stroke-miterlimit:4;stroke-dasharray:none;stroke-opacity:1;fill-opacity:1" />
    <path
       id="path840"
       shaper:cutDepth="0"
       d="m 524.90586,-100.91017 v 9.999999 h -55.55555 v -9.999999 h -55.55556 v 9.999999 H 358.2392 v -9.999999 h -55.55556 v 9.999999 h -55.55555 v -9.999999 H 191.57255 V 99.089829 h 238.99998 v -22 h 22 v 22 h 239 V -100.91017 h -55.55556 v 9.999999 h -55.55555 v -9.999999 z"
       inkscape:connector-curvature="0"
       style="fill:#303b96;stroke:#000000;stroke-width:1;stroke-linecap:round;stroke-linejoin:round;stroke-miterlimit:4;stroke-dasharray:none;stroke-opacity:1;fill-opacity:1" />
    <path
       id="path862-3"
       shaper:cutDepth="0"
       d="m 241.56644,-241.11553 v 10 h -50.01045 v 110.7 h 27.5 v 9.3 h 45 v -9.3 h 27.5 v 9.3 h 50.05226 v -9.3 h 27.5 v 9.3 h 45 v -9.3 h 27.5 v -110.7 H 391.5978 v -10 h -50.01045 v 10 h -50.01046 v -10 z"
       inkscape:connector-curvature="0"
       style="fill:#cf35a8;stroke:#000000;stroke-width:1;stroke-linecap:round;stroke-linejoin:round;stroke-miterlimit:4;stroke-dasharray:none;stroke-opacity:1;fill-opacity:1" />
    <path
       id="path862"
       shaper:cutDepth="0"
       d="m 498.83498,-241.11553 v 10 h -50.01045 v 110.7 h 27.5 v 9.3 h 45 v -9.3 h 27.5 v 9.3 h 50.05226 v -9.3 h 27.5 v 9.3 h 45 v -9.3 h 27.5 v -110.7 h -50.01045 v -10 h -50.01045 v 10 h -50.01046 v -10 z"
       inkscape:connector-curvature="0"
       style="fill:#cf35a8;stroke:#000000;stroke-width:1;stroke-linecap:round;stroke-linejoin:round;stroke-miterlimit:4;stroke-dasharray:none;stroke-opacity:1;fill-opacity:1" />
    <path
       d="M 247.33516,113.36614 H 203.7796 v 150 h 476 v -150 h -43.55555 v -10 h -55.55557 v 10 h -55.55554 v -10 h -55.55557 v 10 h -55.55555 v -10 h -55.55555 v 10 h -55.55556 v -10 h -55.55555 z"
       fill="#000000"
       shaper:cutDepth="0"
       stroke-linecap="round"
       stroke-linejoin="round"
       id="path2"
       style="stroke-width:1;fill:#36cf64;stroke-miterlimit:4;stroke-dasharray:none;stroke:#000000;stroke-opacity:1;fill-opacity:1" />
    <text
       xml:space="preserve"
       id="text849"
       style="font-size:50.8px;line-height:1.25;font-family:sans-serif;letter-spacing:0px;word-spacing:0px;white-space:pre;shape-inside:url(#rect851);fill:#ffffff;fill-opacity:1;"
       transform="translate(3.061019,4.4432993)"><tspan
         x="92.226562"
         y="-110.64375"><tspan
           style="font-size:50.8px;fill:#ffffff;fill-opacity:1">A</tspan></tspan></text>
    <text
       xml:space="preserve"
       id="text849-0"
       style="font-size:50.8px;line-height:1.25;font-family:sans-serif;letter-spacing:0px;word-spacing:0px;white-space:pre;shape-inside:url(#rect851-4);fill:#ffffff;fill-opacity:1;"
       transform="translate(331.22615,128.25028)"><tspan
         x="92.226562"
         y="-110.64375"><tspan>B</tspan></tspan></text>
    <text
       xml:space="preserve"
       id="text849-8"
       style="font-size:50.8px;line-height:1.25;font-family:sans-serif;letter-spacing:0px;word-spacing:0px;white-space:pre;shape-inside:url(#rect851-8);fill:#ffffff;fill-opacity:1;"
       transform="translate(332.18976,312.52659)"><tspan
         x="92.226562"
         y="-110.64375"><tspan>C</tspan></tspan></text>
    <text
       xml:space="preserve"
       id="text849-9"
       style="font-size:50.8px;line-height:1.25;font-family:sans-serif;letter-spacing:0px;word-spacing:0px;white-space:pre;shape-inside:url(#rect851-9);fill:#ffffff;fill-opacity:1;"
       transform="translate(721.04975,120.57605)"><tspan
         x="92.226562"
         y="-110.64375"><tspan>D</tspan></tspan></text>
  </g>
</svg>
