<?xml version="1.0" encoding="UTF-8" standalone="no"?>
<!-- Created with Inkscape (http://www.inkscape.org/) -->

<svg
   xmlns:dc="http://purl.org/dc/elements/1.1/"
   xmlns:cc="http://creativecommons.org/ns#"
   xmlns:rdf="http://www.w3.org/1999/02/22-rdf-syntax-ns#"
   xmlns:svg="http://www.w3.org/2000/svg"
   xmlns="http://www.w3.org/2000/svg"
   xmlns:sodipodi="http://sodipodi.sourceforge.net/DTD/sodipodi-0.dtd"
   xmlns:inkscape="http://www.inkscape.org/namespaces/inkscape"
   width="270mm"
   height="320mm"
   viewBox="0 0 270 320"
   version="1.1"
   id="svg1063"
   inkscape:version="0.92.5 (2060ec1f9f, 2020-04-08)"
   sodipodi:docname="portes_meuble.svg"
   inkscape:export-filename="/media/guillaume/D-PC/Autoentreprise/remorque_atelier/git/remorques_ateliers/docs/pictures/AI2-11.png"
   inkscape:export-xdpi="94.074074"
   inkscape:export-ydpi="94.074074">
  <defs
     id="defs1057" />
  <sodipodi:namedview
     id="base"
     pagecolor="#ffffff"
     bordercolor="#666666"
     borderopacity="1.0"
     inkscape:pageopacity="0.0"
     inkscape:pageshadow="2"
     inkscape:zoom="0.35"
     inkscape:cx="95.288873"
     inkscape:cy="554.28571"
     inkscape:document-units="mm"
     inkscape:current-layer="layer1"
     showgrid="false"
     inkscape:window-width="1872"
     inkscape:window-height="1016"
     inkscape:window-x="48"
     inkscape:window-y="27"
     inkscape:window-maximized="1" />
  <metadata
     id="metadata1060">
    <rdf:RDF>
      <cc:Work
         rdf:about="">
        <dc:format>image/svg+xml</dc:format>
        <dc:type
           rdf:resource="http://purl.org/dc/dcmitype/StillImage" />
        <dc:title />
      </cc:Work>
    </rdf:RDF>
  </metadata>
  <g
     inkscape:label="Calque 1"
     inkscape:groupmode="layer"
     id="layer1"
     transform="translate(0,23)">
    <rect
       style="opacity:1;fill:#ffffff;fill-opacity:1;fill-rule:nonzero;stroke:none;stroke-width:1.2133013;stroke-linecap:round;stroke-linejoin:round;stroke-miterlimit:4;stroke-dasharray:none;stroke-dashoffset:0;stroke-opacity:1;paint-order:stroke fill markers"
       id="rect835"
       width="342.71408"
       height="362.78564"
       x="-42.601017"
       y="-41.595173" />
    <path
       style="fill:#5ec349;fill-opacity:1;stroke:#000000;stroke-width:3.77952766;stroke-linecap:round;stroke-linejoin:round;stroke-miterlimit:4;stroke-dasharray:none;stroke-opacity:1"
       d="M 125.91602,19.347656 V 32.576172 H 38.988281 V 593.83594 H 889.38086 a 94.48828,94.48828 0 1 0 0,-188.97656 94.488185,94.488185 0 0 1 -94.48828,-94.48829 V 19.347656 Z M 887.72656,442.67969 a 56.692913,56.692913 0 0 1 58.34766,56.66797 56.69336,56.69336 0 0 1 -113.38672,0 56.692913,56.692913 0 0 1 55.03906,-56.66797 z"
       transform="matrix(0.26458333,0,0,0.26458333,0,-23)"
       id="path1608"
       inkscape:connector-curvature="0" />
    <path
       style="fill:#5ec349;fill-opacity:1;stroke:#000000;stroke-width:3.77952766;stroke-linecap:round;stroke-linejoin:round;stroke-miterlimit:4;stroke-dasharray:none;stroke-opacity:1"
       d="m 125.91602,610.8457 v 13.22852 H 38.988281 V 1185.334 H 889.38086 a 94.48829,94.48829 0 0 0 0,-188.97658 94.488185,94.488185 0 0 1 -94.48828,-94.48828 V 610.8457 Z m 761.81054,423.3301 a 56.692913,56.692913 0 0 1 58.34766,56.6699 56.69336,56.69336 0 0 1 -113.38672,0 56.692913,56.692913 0 0 1 55.03906,-56.6699 z"
       transform="matrix(0.26458333,0,0,0.26458333,0,-23)"
       id="path1608-0"
       inkscape:connector-curvature="0" />
    <text
       y="187.27953"
       x="35.597916"
       xml:space="preserve"
       id="text849-0"
       style="font-size:50.79999924px;line-height:1.25;font-family:sans-serif;letter-spacing:0px;word-spacing:0px;white-space:pre;shape-inside:url(#rect851-4);fill:#ffffff;fill-opacity:1;stroke-width:1"><tspan
         style="stroke-width:1"
         x="127.82449"
         y="76.63578"
         id="tspan12">I<tspan
   style="stroke-width:1"
   id="tspan10" /></tspan></text>
  </g>
</svg>
